<svg xmlns="http://www.w3.org/2000/svg" xmlns:xlink="http://www.w3.org/1999/xlink" width="2000" zoomAndPan="magnify" viewBox="0 0 1500 449.999984" height="600" preserveAspectRatio="xMidYMid meet" version="1.0"><defs><g/><radialGradient gradientTransform="matrix(1, 0, 0, 1, 0.0000271667, 0)" gradientUnits="userSpaceOnUse" r="783.023229" cx="749.999973" id="d3f3aabd98" cy="224.999992" fx="749.999973" fy="224.999992"><stop stop-opacity="1" stop-color="rgb(100%, 96.77887%, 67.915344%)" offset="0"/><stop stop-opacity="1" stop-color="rgb(100%, 96.479797%, 68.205261%)" offset="0.0078125"/><stop stop-opacity="1" stop-color="rgb(100%, 96.121216%, 68.554688%)" offset="0.0195312"/><stop stop-opacity="1" stop-color="rgb(100%, 95.762634%, 68.904114%)" offset="0.03125"/><stop stop-opacity="1" stop-color="rgb(100%, 95.404053%, 69.25354%)" offset="0.0429688"/><stop stop-opacity="1" stop-color="rgb(100%, 95.045471%, 69.602966%)" offset="0.0546875"/><stop stop-opacity="1" stop-color="rgb(100%, 94.68689%, 69.952393%)" offset="0.0664062"/><stop stop-opacity="1" stop-color="rgb(100%, 94.328308%, 70.301819%)" offset="0.078125"/><stop stop-opacity="1" stop-color="rgb(100%, 93.969727%, 70.651245%)" offset="0.0898438"/><stop stop-opacity="1" stop-color="rgb(100%, 93.611145%, 70.999146%)" offset="0.101562"/><stop stop-opacity="1" stop-color="rgb(100%, 93.252563%, 71.348572%)" offset="0.113281"/><stop stop-opacity="1" stop-color="rgb(100%, 92.893982%, 71.697998%)" offset="0.125"/><stop stop-opacity="1" stop-color="rgb(100%, 92.5354%, 72.047424%)" offset="0.136719"/><stop stop-opacity="1" stop-color="rgb(100%, 92.176819%, 72.396851%)" offset="0.148438"/><stop stop-opacity="1" stop-color="rgb(100%, 91.818237%, 72.746277%)" offset="0.160156"/><stop stop-opacity="1" stop-color="rgb(100%, 91.459656%, 73.095703%)" offset="0.171875"/><stop stop-opacity="1" stop-color="rgb(100%, 91.101074%, 73.443604%)" offset="0.183594"/><stop stop-opacity="1" stop-color="rgb(100%, 90.742493%, 73.79303%)" offset="0.195312"/><stop stop-opacity="1" stop-color="rgb(100%, 90.383911%, 74.142456%)" offset="0.207031"/><stop stop-opacity="1" stop-color="rgb(100%, 90.02533%, 74.491882%)" offset="0.21875"/><stop stop-opacity="1" stop-color="rgb(100%, 89.666748%, 74.841309%)" offset="0.230469"/><stop stop-opacity="1" stop-color="rgb(100%, 89.308167%, 75.190735%)" offset="0.242188"/><stop stop-opacity="1" stop-color="rgb(100%, 89.009094%, 75.482178%)" offset="0.253906"/><stop stop-opacity="1" stop-color="rgb(100%, 88.771057%, 75.714111%)" offset="0.261719"/><stop stop-opacity="1" stop-color="rgb(100%, 88.531494%, 75.947571%)" offset="0.269531"/><stop stop-opacity="1" stop-color="rgb(100%, 88.291931%, 76.179504%)" offset="0.277344"/><stop stop-opacity="1" stop-color="rgb(100%, 88.053894%, 76.412964%)" offset="0.285156"/><stop stop-opacity="1" stop-color="rgb(100%, 87.814331%, 76.646423%)" offset="0.292969"/><stop stop-opacity="1" stop-color="rgb(100%, 87.574768%, 76.878357%)" offset="0.300781"/><stop stop-opacity="1" stop-color="rgb(100%, 87.336731%, 77.111816%)" offset="0.308594"/><stop stop-opacity="1" stop-color="rgb(100%, 87.097168%, 77.34375%)" offset="0.316406"/><stop stop-opacity="1" stop-color="rgb(100%, 86.857605%, 77.577209%)" offset="0.324219"/><stop stop-opacity="1" stop-color="rgb(100%, 86.619568%, 77.809143%)" offset="0.332031"/><stop stop-opacity="1" stop-color="rgb(100%, 86.380005%, 78.042603%)" offset="0.339844"/><stop stop-opacity="1" stop-color="rgb(100%, 86.140442%, 78.276062%)" offset="0.347656"/><stop stop-opacity="1" stop-color="rgb(100%, 85.902405%, 78.507996%)" offset="0.355469"/><stop stop-opacity="1" stop-color="rgb(100%, 85.662842%, 78.741455%)" offset="0.363281"/><stop stop-opacity="1" stop-color="rgb(100%, 85.423279%, 78.973389%)" offset="0.371094"/><stop stop-opacity="1" stop-color="rgb(100%, 85.185242%, 79.206848%)" offset="0.378906"/><stop stop-opacity="1" stop-color="rgb(100%, 84.945679%, 79.438782%)" offset="0.386719"/><stop stop-opacity="1" stop-color="rgb(100%, 84.706116%, 79.672241%)" offset="0.394531"/><stop stop-opacity="1" stop-color="rgb(100%, 84.468079%, 79.905701%)" offset="0.402344"/><stop stop-opacity="1" stop-color="rgb(100%, 84.228516%, 80.137634%)" offset="0.410156"/><stop stop-opacity="1" stop-color="rgb(100%, 83.988953%, 80.371094%)" offset="0.417969"/><stop stop-opacity="1" stop-color="rgb(100%, 83.750916%, 80.603027%)" offset="0.425781"/><stop stop-opacity="1" stop-color="rgb(100%, 83.511353%, 80.836487%)" offset="0.433594"/><stop stop-opacity="1" stop-color="rgb(100%, 83.27179%, 81.06842%)" offset="0.441406"/><stop stop-opacity="1" stop-color="rgb(100%, 83.033752%, 81.30188%)" offset="0.449219"/><stop stop-opacity="1" stop-color="rgb(100%, 82.794189%, 81.535339%)" offset="0.457031"/><stop stop-opacity="1" stop-color="rgb(100%, 82.554626%, 81.767273%)" offset="0.464844"/><stop stop-opacity="1" stop-color="rgb(100%, 82.316589%, 82.000732%)" offset="0.472656"/><stop stop-opacity="1" stop-color="rgb(100%, 82.077026%, 82.232666%)" offset="0.480469"/><stop stop-opacity="1" stop-color="rgb(100%, 81.837463%, 82.466125%)" offset="0.488281"/><stop stop-opacity="1" stop-color="rgb(100%, 81.599426%, 82.698059%)" offset="0.496094"/><stop stop-opacity="1" stop-color="rgb(100%, 81.300354%, 82.989502%)" offset="0.503906"/><stop stop-opacity="1" stop-color="rgb(100%, 80.941772%, 83.338928%)" offset="0.515625"/><stop stop-opacity="1" stop-color="rgb(100%, 80.583191%, 83.688354%)" offset="0.527344"/><stop stop-opacity="1" stop-color="rgb(100%, 80.224609%, 84.037781%)" offset="0.539062"/><stop stop-opacity="1" stop-color="rgb(100%, 79.866028%, 84.387207%)" offset="0.550781"/><stop stop-opacity="1" stop-color="rgb(100%, 79.507446%, 84.735107%)" offset="0.5625"/><stop stop-opacity="1" stop-color="rgb(100%, 79.147339%, 85.084534%)" offset="0.574219"/><stop stop-opacity="1" stop-color="rgb(100%, 78.788757%, 85.43396%)" offset="0.585938"/><stop stop-opacity="1" stop-color="rgb(100%, 78.430176%, 85.783386%)" offset="0.597656"/><stop stop-opacity="1" stop-color="rgb(100%, 78.071594%, 86.132812%)" offset="0.609375"/><stop stop-opacity="1" stop-color="rgb(100%, 77.713013%, 86.482239%)" offset="0.621094"/><stop stop-opacity="1" stop-color="rgb(100%, 77.415466%, 86.773682%)" offset="0.632812"/><stop stop-opacity="1" stop-color="rgb(100%, 77.175903%, 87.005615%)" offset="0.640625"/><stop stop-opacity="1" stop-color="rgb(100%, 76.93634%, 87.239075%)" offset="0.648438"/><stop stop-opacity="1" stop-color="rgb(100%, 76.698303%, 87.471008%)" offset="0.65625"/><stop stop-opacity="1" stop-color="rgb(100%, 76.45874%, 87.704468%)" offset="0.664062"/><stop stop-opacity="1" stop-color="rgb(100%, 76.219177%, 87.936401%)" offset="0.671875"/><stop stop-opacity="1" stop-color="rgb(100%, 75.98114%, 88.169861%)" offset="0.679688"/><stop stop-opacity="1" stop-color="rgb(100%, 75.741577%, 88.40332%)" offset="0.6875"/><stop stop-opacity="1" stop-color="rgb(100%, 75.502014%, 88.635254%)" offset="0.695312"/><stop stop-opacity="1" stop-color="rgb(100%, 75.263977%, 88.868713%)" offset="0.703125"/><stop stop-opacity="1" stop-color="rgb(100%, 75.024414%, 89.100647%)" offset="0.710938"/><stop stop-opacity="1" stop-color="rgb(100%, 74.784851%, 89.334106%)" offset="0.71875"/><stop stop-opacity="1" stop-color="rgb(100%, 74.546814%, 89.56604%)" offset="0.726562"/><stop stop-opacity="1" stop-color="rgb(100%, 74.307251%, 89.7995%)" offset="0.734375"/><stop stop-opacity="1" stop-color="rgb(100%, 74.067688%, 90.032959%)" offset="0.742188"/><stop stop-opacity="1" stop-color="rgb(100%, 73.829651%, 90.264893%)" offset="0.75"/><stop stop-opacity="1" stop-color="rgb(100%, 73.530579%, 90.556335%)" offset="0.757812"/><stop stop-opacity="1" stop-color="rgb(100%, 73.171997%, 90.905762%)" offset="0.769531"/><stop stop-opacity="1" stop-color="rgb(100%, 72.813416%, 91.255188%)" offset="0.78125"/><stop stop-opacity="1" stop-color="rgb(100%, 72.454834%, 91.603088%)" offset="0.792969"/><stop stop-opacity="1" stop-color="rgb(100%, 72.096252%, 91.952515%)" offset="0.804688"/><stop stop-opacity="1" stop-color="rgb(100%, 71.79718%, 92.243958%)" offset="0.816406"/><stop stop-opacity="1" stop-color="rgb(100%, 71.557617%, 92.477417%)" offset="0.824219"/><stop stop-opacity="1" stop-color="rgb(100%, 71.31958%, 92.709351%)" offset="0.832031"/><stop stop-opacity="1" stop-color="rgb(100%, 71.080017%, 92.94281%)" offset="0.839844"/><stop stop-opacity="1" stop-color="rgb(100%, 70.840454%, 93.174744%)" offset="0.847656"/><stop stop-opacity="1" stop-color="rgb(100%, 70.602417%, 93.408203%)" offset="0.855469"/><stop stop-opacity="1" stop-color="rgb(100%, 70.362854%, 93.641663%)" offset="0.863281"/><stop stop-opacity="1" stop-color="rgb(100%, 70.123291%, 93.873596%)" offset="0.871094"/><stop stop-opacity="1" stop-color="rgb(100%, 69.824219%, 94.165039%)" offset="0.878906"/><stop stop-opacity="1" stop-color="rgb(100%, 69.465637%, 94.514465%)" offset="0.890625"/><stop stop-opacity="1" stop-color="rgb(100%, 69.107056%, 94.862366%)" offset="0.902344"/><stop stop-opacity="1" stop-color="rgb(100%, 68.809509%, 95.153809%)" offset="0.914062"/><stop stop-opacity="1" stop-color="rgb(100%, 68.569946%, 95.387268%)" offset="0.921875"/><stop stop-opacity="1" stop-color="rgb(100%, 68.330383%, 95.619202%)" offset="0.929688"/><stop stop-opacity="1" stop-color="rgb(100%, 68.092346%, 95.852661%)" offset="0.9375"/><stop stop-opacity="1" stop-color="rgb(100%, 67.793274%, 96.144104%)" offset="0.945312"/><stop stop-opacity="1" stop-color="rgb(100%, 67.494202%, 96.434021%)" offset="0.957031"/><stop stop-opacity="1" stop-color="rgb(100%, 67.254639%, 96.66748%)" offset="0.964844"/><stop stop-opacity="1" stop-color="rgb(100%, 66.955566%, 96.958923%)" offset="0.972656"/><stop stop-opacity="1" stop-color="rgb(100%, 66.65802%, 97.24884%)" offset="0.984375"/><stop stop-opacity="1" stop-color="rgb(100%, 66.418457%, 97.4823%)" offset="0.992188"/><stop stop-opacity="1" stop-color="rgb(100%, 66.299438%, 97.599792%)" offset="1"/></radialGradient><clipPath id="63965fb225"><path d="M 130.816406 159.847656 L 1369.234375 159.847656 L 1369.234375 290.152344 L 130.816406 290.152344 Z M 130.816406 159.847656 " clip-rule="nonzero"/></clipPath><clipPath id="12bb1e32f5"><path d="M 1354.261719 290.152344 L 145.738281 290.152344 C 137.515625 290.152344 130.816406 283.453125 130.816406 275.230469 L 130.816406 174.769531 C 130.816406 166.546875 137.515625 159.847656 145.738281 159.847656 L 1354.261719 159.847656 C 1362.484375 159.847656 1369.183594 166.546875 1369.183594 174.769531 L 1369.183594 275.230469 C 1369.183594 283.453125 1362.484375 290.152344 1354.261719 290.152344 Z M 1354.261719 290.152344 " clip-rule="nonzero"/></clipPath><clipPath id="be085589bd"><path d="M 197.902344 180 L 287.902344 180 L 287.902344 270 L 197.902344 270 Z M 197.902344 180 " clip-rule="nonzero"/></clipPath></defs><rect x="-150" width="1800" fill="#ffffff" y="-44.999998" height="539.99998" fill-opacity="1"/><rect x="-150" fill="url(#d3f3aabd98)" width="1800" y="-44.999998" height="539.99998"/><g clip-path="url(#63965fb225)"><g clip-path="url(#12bb1e32f5)"><path fill="#ffffff" d="M 130.816406 159.847656 L 1369.234375 159.847656 L 1369.234375 290.152344 L 130.816406 290.152344 Z M 130.816406 159.847656 " fill-opacity="1" fill-rule="nonzero"/></g></g><g clip-path="url(#be085589bd)"><path fill="#a6a6a6" d="M 255.75 245.8125 L 277.792969 267.847656 C 279.976562 270.03125 283.519531 270.03125 285.703125 267.847656 C 287.886719 265.664062 287.886719 262.121094 285.703125 259.9375 L 263.671875 237.917969 C 268.105469 231.886719 270.726562 224.445312 270.726562 216.394531 C 270.726562 196.308594 254.417969 180 234.332031 180 C 214.246094 180 197.9375 196.308594 197.9375 216.394531 C 197.9375 236.480469 214.246094 252.789062 234.332031 252.789062 C 242.335938 252.789062 249.738281 250.199219 255.75 245.8125 Z M 234.332031 191.1875 C 248.242188 191.1875 259.539062 202.480469 259.539062 216.394531 C 259.539062 230.308594 248.242188 241.601562 234.332031 241.601562 C 220.417969 241.601562 209.121094 230.308594 209.121094 216.394531 C 209.121094 202.480469 220.417969 191.1875 234.332031 191.1875 Z M 234.332031 191.1875 " fill-opacity="1" fill-rule="evenodd"/></g><path stroke-linecap="butt" transform="matrix(0, -0.75, 0.75, 0, 355.061865, 290.150368)" fill="none" stroke-linejoin="miter" d="M 0.00257373 2.500847 L 173.742171 2.500847 " stroke="#a6a6a6" stroke-width="5" stroke-opacity="1" stroke-miterlimit="4"/><g fill="#000000" fill-opacity="1"><g transform="translate(490.311901, 234.472686)"><g><path d="M -0.6875 0 L 3.84375 0 L 3.84375 -0.515625 C 2.484375 -0.796875 2.3125 -2.125 3.359375 -4.71875 L 5.71875 -10.5625 L 17 -10.5625 L 19.4375 -4.6875 C 20.71875 -1.6875 21.046875 -0.875 19.796875 -0.515625 L 19.796875 0 L 26 0 L 26 -0.515625 C 25.15625 -0.875 24.203125 -1.6875 22.953125 -4.6875 L 13.125 -28.3125 L 10.125 -26.953125 L 10.484375 -26.125 C 10.796875 -25.484375 10.84375 -24.953125 10.5625 -24.234375 L 2.6875 -4.71875 C 1.4375 -1.6875 0.4375 -0.875 -0.6875 -0.515625 Z M 5.953125 -11.15625 L 11.28125 -24.3125 L 16.765625 -11.15625 Z M 5.953125 -11.15625 "/></g></g></g><g fill="#000000" fill-opacity="1"><g transform="translate(515.949354, 234.472686)"><g><path d="M 1.28125 0 L 7.59375 0 L 7.59375 -0.515625 C 6.40625 -0.875 6 -1.796875 6 -5.078125 L 6 -15.953125 C 8.046875 -17.640625 10.203125 -18.953125 12.40625 -18.953125 C 15.921875 -18.953125 17.6875 -16.6875 17.6875 -12.515625 L 17.6875 -5.078125 C 17.6875 -1.796875 17.3125 -0.875 16.078125 -0.515625 L 16.078125 0 L 22.40625 0 L 22.40625 -0.515625 C 21.15625 -0.875 20.796875 -1.796875 20.796875 -5.078125 L 20.796875 -13.3125 C 20.796875 -18 18.40625 -20.28125 14.484375 -20.28125 C 11.40625 -20.28125 8.3125 -18.484375 6 -16.59375 L 6 -20.046875 L 5.6875 -20.3125 L 1.28125 -18.40625 L 1.28125 -17.953125 C 2.40625 -17.484375 2.875 -17.078125 2.875 -14.28125 L 2.875 -5.078125 C 2.875 -1.796875 2.515625 -0.875 1.28125 -0.515625 Z M 1.28125 0 "/></g></g></g><g fill="#000000" fill-opacity="1"><g transform="translate(539.307029, 234.472686)"><g/></g></g><g fill="#000000" fill-opacity="1"><g transform="translate(547.706191, 234.472686)"><g><path d="M 1.28125 0 L 7.59375 0 L 7.59375 -0.515625 C 6.40625 -0.875 6 -1.796875 6 -5.078125 L 6 -20.046875 L 5.6875 -20.3125 L 1.28125 -18.40625 L 1.28125 -17.953125 C 2.40625 -17.484375 2.875 -17.078125 2.875 -14.28125 L 2.875 -5.078125 C 2.875 -1.796875 2.515625 -0.875 1.28125 -0.515625 Z M 2 -24.953125 C 2 -23.765625 2.953125 -22.765625 4.203125 -22.765625 C 5.4375 -22.765625 6.40625 -23.765625 6.40625 -24.953125 C 6.40625 -26.234375 5.484375 -27.203125 4.203125 -27.203125 C 2.953125 -27.203125 2 -26.234375 2 -24.953125 Z M 2 -24.953125 "/></g></g></g><g fill="#000000" fill-opacity="1"><g transform="translate(556.705298, 234.472686)"><g><path d="M 1.28125 0 L 7.59375 0 L 7.59375 -0.515625 C 6.40625 -0.875 6 -1.796875 6 -5.078125 L 6 -15.953125 C 8.046875 -17.640625 10.203125 -18.953125 12.40625 -18.953125 C 15.921875 -18.953125 17.6875 -16.6875 17.6875 -12.515625 L 17.6875 -5.078125 C 17.6875 -1.796875 17.3125 -0.875 16.078125 -0.515625 L 16.078125 0 L 22.40625 0 L 22.40625 -0.515625 C 21.15625 -0.875 20.796875 -1.796875 20.796875 -5.078125 L 20.796875 -13.3125 C 20.796875 -18 18.40625 -20.28125 14.484375 -20.28125 C 11.40625 -20.28125 8.3125 -18.484375 6 -16.59375 L 6 -20.046875 L 5.6875 -20.3125 L 1.28125 -18.40625 L 1.28125 -17.953125 C 2.40625 -17.484375 2.875 -17.078125 2.875 -14.28125 L 2.875 -5.078125 C 2.875 -1.796875 2.515625 -0.875 1.28125 -0.515625 Z M 1.28125 0 "/></g></g></g><g fill="#000000" fill-opacity="1"><g transform="translate(580.062973, 234.472686)"><g><path d="M 7.5625 0.40625 C 9.921875 0.40625 11.953125 -1.3125 13.6875 -3.28125 L 13.3125 -3.640625 C 12 -2.078125 10.59375 -1.5625 9.484375 -1.5625 C 7.765625 -1.5625 6.640625 -2.59375 6.640625 -5.3125 L 6.640625 -19.4375 L 12.515625 -19.4375 L 12.71875 -20 L 6.640625 -20 L 6.640625 -24.921875 L 6.078125 -24.921875 L 0.953125 -20 L 0.953125 -19.4375 L 3.515625 -19.4375 L 3.515625 -5.3125 C 3.515625 -1.15625 5.046875 0.40625 7.5625 0.40625 Z M 7.5625 0.40625 "/></g></g></g><g fill="#000000" fill-opacity="1"><g transform="translate(593.821609, 234.472686)"><g><path d="M 1.28125 0 L 7.59375 0 L 7.59375 -0.515625 C 6.359375 -0.875 6 -1.796875 6 -5.078125 L 6 -13.046875 L 6.046875 -13.046875 C 6.15625 -14.953125 7.59375 -17.203125 8.765625 -18.046875 C 11.125 -17.359375 12.6875 -16.921875 13.765625 -16.921875 C 15.203125 -16.921875 16.078125 -18.3125 16.078125 -19.203125 C 16.078125 -19.875 15.078125 -20.28125 13.484375 -20.28125 C 11.5625 -20.28125 10.15625 -19.765625 8.921875 -18.84375 C 7.71875 -17.953125 6.640625 -16.59375 6 -15.046875 L 6 -20.046875 L 5.640625 -20.3125 L 1.28125 -18.40625 L 1.28125 -17.953125 C 2.359375 -17.484375 2.875 -17.078125 2.875 -14.28125 L 2.875 -5.078125 C 2.875 -1.796875 2.515625 -0.875 1.28125 -0.515625 Z M 1.28125 0 "/></g></g></g><g fill="#000000" fill-opacity="1"><g transform="translate(610.619944, 234.472686)"><g><path d="M 11.921875 0.40625 C 16.640625 0.40625 22.359375 -3.28125 22.359375 -10.125 C 22.359375 -17.234375 16.875 -20.28125 11.921875 -20.28125 C 6.4375 -20.28125 1.4375 -15.953125 1.4375 -9.71875 C 1.4375 -2.765625 6.84375 0.40625 11.921875 0.40625 Z M 4.515625 -12 C 4.515625 -16 6.359375 -19.359375 10.4375 -19.515625 C 15.6875 -19.796875 19.3125 -12.921875 19.3125 -7.765625 C 19.3125 -3.875 17.40625 -0.4375 13.125 -0.4375 C 7.796875 -0.4375 4.515625 -6.921875 4.515625 -12 Z M 4.515625 -12 "/></g></g></g><g fill="#000000" fill-opacity="1"><g transform="translate(634.697555, 234.472686)"><g><path d="M 10.28125 0.4375 C 13.125 0.484375 15.59375 -1.4375 17.5625 -3.484375 L 17.5625 -1.203125 C 17.5625 -0.4375 18 0 18.765625 0 L 22.28125 0 L 22.28125 -0.515625 C 21.046875 -0.875 20.6875 -1.796875 20.6875 -5.078125 L 20.6875 -32.046875 L 20.359375 -32.3125 L 15.953125 -30.40625 L 15.953125 -29.953125 C 17.046875 -29.484375 17.5625 -29.078125 17.5625 -26.28125 L 17.5625 -18.6875 C 16.15625 -19.5625 14.3125 -20.234375 12.125 -20.234375 C 5.234375 -20.203125 1.4375 -15.078125 1.4375 -9.515625 C 1.4375 -3.875 5.3125 0.40625 10.28125 0.4375 Z M 4.4375 -11.921875 C 4.4375 -16.15625 6.640625 -19.484375 10.875 -19.484375 C 14.234375 -19.484375 17.203125 -16.59375 17.5625 -14 L 17.5625 -4.203125 C 16 -2.59375 14.15625 -1.515625 12.078125 -1.515625 C 6.640625 -1.515625 4.4375 -7.234375 4.4375 -11.921875 Z M 4.4375 -11.921875 "/></g></g></g><g fill="#000000" fill-opacity="1"><g transform="translate(657.895254, 234.472686)"><g><path d="M 8.71875 0.40625 C 11.71875 0.40625 14.484375 -1.515625 16.515625 -3.640625 L 16.515625 -1.59375 C 16.515625 -0.4375 16.953125 0 17.84375 0 L 21.234375 0 L 21.234375 -0.515625 C 20 -0.875 19.640625 -1.796875 19.640625 -5.078125 L 19.640625 -20.046875 L 19.28125 -20.3125 L 14.921875 -18.40625 L 14.921875 -17.953125 C 16 -17.484375 16.515625 -17.078125 16.515625 -14.28125 L 16.515625 -4.40625 C 14.71875 -2.484375 12.5625 -1 10.203125 -1 C 7 -1 5.71875 -3.046875 5.71875 -7.59375 L 5.71875 -20.046875 L 5.359375 -20.3125 L 1 -18.40625 L 1 -17.953125 C 2.078125 -17.484375 2.59375 -17.078125 2.59375 -14.28125 L 2.59375 -6.875 C 2.59375 -2.28125 4.515625 0.40625 8.71875 0.40625 Z M 8.71875 0.40625 "/></g></g></g><g fill="#000000" fill-opacity="1"><g transform="translate(680.533005, 234.472686)"><g><path d="M 10.921875 0.40625 C 15.203125 0.40625 18.3125 -2.4375 20.359375 -5.234375 L 20 -5.59375 C 18.15625 -3.515625 15.953125 -2.125 12.875 -2.125 C 7.6875 -2.125 4.28125 -5.875 4.28125 -11.359375 C 4.28125 -15.6875 6.796875 -19 10.515625 -19.640625 C 13.71875 -17.125 15.59375 -15.953125 16.59375 -15.953125 C 17.875 -15.953125 19.125 -17.203125 19.125 -18.125 C 19.125 -19.203125 16.15625 -20.28125 12.3125 -20.28125 C 6.484375 -20.28125 1.4375 -15.71875 1.4375 -9.40625 C 1.4375 -2.953125 6.28125 0.40625 10.921875 0.40625 Z M 10.921875 0.40625 "/></g></g></g><g fill="#000000" fill-opacity="1"><g transform="translate(701.690897, 234.472686)"><g><path d="M 7.5625 0.40625 C 9.921875 0.40625 11.953125 -1.3125 13.6875 -3.28125 L 13.3125 -3.640625 C 12 -2.078125 10.59375 -1.5625 9.484375 -1.5625 C 7.765625 -1.5625 6.640625 -2.59375 6.640625 -5.3125 L 6.640625 -19.4375 L 12.515625 -19.4375 L 12.71875 -20 L 6.640625 -20 L 6.640625 -24.921875 L 6.078125 -24.921875 L 0.953125 -20 L 0.953125 -19.4375 L 3.515625 -19.4375 L 3.515625 -5.3125 C 3.515625 -1.15625 5.046875 0.40625 7.5625 0.40625 Z M 7.5625 0.40625 "/></g></g></g><g fill="#000000" fill-opacity="1"><g transform="translate(715.449533, 234.472686)"><g><path d="M 1.28125 0 L 7.59375 0 L 7.59375 -0.515625 C 6.40625 -0.875 6 -1.796875 6 -5.078125 L 6 -20.046875 L 5.6875 -20.3125 L 1.28125 -18.40625 L 1.28125 -17.953125 C 2.40625 -17.484375 2.875 -17.078125 2.875 -14.28125 L 2.875 -5.078125 C 2.875 -1.796875 2.515625 -0.875 1.28125 -0.515625 Z M 2 -24.953125 C 2 -23.765625 2.953125 -22.765625 4.203125 -22.765625 C 5.4375 -22.765625 6.40625 -23.765625 6.40625 -24.953125 C 6.40625 -26.234375 5.484375 -27.203125 4.203125 -27.203125 C 2.953125 -27.203125 2 -26.234375 2 -24.953125 Z M 2 -24.953125 "/></g></g></g><g fill="#000000" fill-opacity="1"><g transform="translate(724.44864, 234.472686)"><g><path d="M 11.921875 0.40625 C 16.640625 0.40625 22.359375 -3.28125 22.359375 -10.125 C 22.359375 -17.234375 16.875 -20.28125 11.921875 -20.28125 C 6.4375 -20.28125 1.4375 -15.953125 1.4375 -9.71875 C 1.4375 -2.765625 6.84375 0.40625 11.921875 0.40625 Z M 4.515625 -12 C 4.515625 -16 6.359375 -19.359375 10.4375 -19.515625 C 15.6875 -19.796875 19.3125 -12.921875 19.3125 -7.765625 C 19.3125 -3.875 17.40625 -0.4375 13.125 -0.4375 C 7.796875 -0.4375 4.515625 -6.921875 4.515625 -12 Z M 4.515625 -12 "/></g></g></g><g fill="#000000" fill-opacity="1"><g transform="translate(748.526252, 234.472686)"><g><path d="M 1.28125 0 L 7.59375 0 L 7.59375 -0.515625 C 6.40625 -0.875 6 -1.796875 6 -5.078125 L 6 -15.953125 C 8.046875 -17.640625 10.203125 -18.953125 12.40625 -18.953125 C 15.921875 -18.953125 17.6875 -16.6875 17.6875 -12.515625 L 17.6875 -5.078125 C 17.6875 -1.796875 17.3125 -0.875 16.078125 -0.515625 L 16.078125 0 L 22.40625 0 L 22.40625 -0.515625 C 21.15625 -0.875 20.796875 -1.796875 20.796875 -5.078125 L 20.796875 -13.3125 C 20.796875 -18 18.40625 -20.28125 14.484375 -20.28125 C 11.40625 -20.28125 8.3125 -18.484375 6 -16.59375 L 6 -20.046875 L 5.6875 -20.3125 L 1.28125 -18.40625 L 1.28125 -17.953125 C 2.40625 -17.484375 2.875 -17.078125 2.875 -14.28125 L 2.875 -5.078125 C 2.875 -1.796875 2.515625 -0.875 1.28125 -0.515625 Z M 1.28125 0 "/></g></g></g><g fill="#000000" fill-opacity="1"><g transform="translate(771.883916, 234.472686)"><g/></g></g><g fill="#000000" fill-opacity="1"><g transform="translate(780.283078, 234.472686)"><g><path d="M 16.765625 0 L 20.234375 0 L 20.234375 -0.515625 C 19 -0.875 18.640625 -1.796875 18.640625 -5.078125 L 18.640625 -13.078125 C 18.640625 -17.59375 16.40625 -20.28125 11.5625 -20.28125 C 8.078125 -20.28125 5.15625 -18.5625 2.875 -15.71875 L 3.234375 -15.40625 C 5.234375 -17.84375 7.5625 -18.953125 9.953125 -18.953125 C 13.359375 -18.953125 15.359375 -17.15625 15.5625 -13.28125 L 10.359375 -11.875 C 5.59375 -10.5625 1.40625 -9 1.40625 -4.84375 C 1.40625 -1.40625 4.046875 0.40625 7 0.40625 C 10.953125 0.40625 14.3125 -3.484375 15.5625 -8.40625 L 15.5625 -1.203125 C 15.5625 -0.4375 15.953125 0 16.765625 0 Z M 4.40625 -5.953125 C 4.359375 -9.234375 7.5625 -10.5625 10.515625 -11.40625 L 15.5625 -12.765625 L 15.5625 -11.5625 C 15.515625 -7.359375 12.765625 -1.953125 8.484375 -1.953125 C 6.203125 -1.953125 4.40625 -3.359375 4.40625 -5.953125 Z M 4.40625 -5.953125 "/></g></g></g><g fill="#000000" fill-opacity="1"><g transform="translate(801.480967, 234.472686)"><g><path d="M 11.71875 0.359375 C 18.40625 0.3125 22.125 -4.953125 22.125 -10.515625 C 22.125 -16.15625 18.484375 -20.28125 13.40625 -20.28125 C 10.640625 -20.28125 8.046875 -19 5.921875 -17.5625 L 5.921875 -32.046875 L 5.5625 -32.3125 L 1.203125 -30.40625 L 1.203125 -29.953125 C 2.28125 -29.484375 2.796875 -29.078125 2.796875 -26.28125 L 2.796875 0 L 3.203125 0 L 4.515625 -2.59375 C 5.953125 -1.046875 8.71875 0.359375 11.71875 0.359375 Z M 5.921875 -6.765625 L 5.921875 -16.953125 C 7.5625 -18.078125 9.4375 -18.953125 11.515625 -18.953125 C 17.15625 -18.953125 19.15625 -12.640625 19.15625 -8.203125 C 19.15625 -3.5625 17.15625 -0.4375 13 -0.4375 C 9.3125 -0.4375 5.921875 -3.875 5.921875 -6.765625 Z M 5.921875 -6.765625 "/></g></g></g><g fill="#000000" fill-opacity="1"><g transform="translate(825.318596, 234.472686)"><g><path d="M 11.921875 0.40625 C 16.640625 0.40625 22.359375 -3.28125 22.359375 -10.125 C 22.359375 -17.234375 16.875 -20.28125 11.921875 -20.28125 C 6.4375 -20.28125 1.4375 -15.953125 1.4375 -9.71875 C 1.4375 -2.765625 6.84375 0.40625 11.921875 0.40625 Z M 4.515625 -12 C 4.515625 -16 6.359375 -19.359375 10.4375 -19.515625 C 15.6875 -19.796875 19.3125 -12.921875 19.3125 -7.765625 C 19.3125 -3.875 17.40625 -0.4375 13.125 -0.4375 C 7.796875 -0.4375 4.515625 -6.921875 4.515625 -12 Z M 4.515625 -12 "/></g></g></g><g fill="#000000" fill-opacity="1"><g transform="translate(849.396208, 234.472686)"><g><path d="M 8.71875 0.40625 C 11.71875 0.40625 14.484375 -1.515625 16.515625 -3.640625 L 16.515625 -1.59375 C 16.515625 -0.4375 16.953125 0 17.84375 0 L 21.234375 0 L 21.234375 -0.515625 C 20 -0.875 19.640625 -1.796875 19.640625 -5.078125 L 19.640625 -20.046875 L 19.28125 -20.3125 L 14.921875 -18.40625 L 14.921875 -17.953125 C 16 -17.484375 16.515625 -17.078125 16.515625 -14.28125 L 16.515625 -4.40625 C 14.71875 -2.484375 12.5625 -1 10.203125 -1 C 7 -1 5.71875 -3.046875 5.71875 -7.59375 L 5.71875 -20.046875 L 5.359375 -20.3125 L 1 -18.40625 L 1 -17.953125 C 2.078125 -17.484375 2.59375 -17.078125 2.59375 -14.28125 L 2.59375 -6.875 C 2.59375 -2.28125 4.515625 0.40625 8.71875 0.40625 Z M 8.71875 0.40625 "/></g></g></g><g fill="#000000" fill-opacity="1"><g transform="translate(872.033948, 234.472686)"><g><path d="M 7.5625 0.40625 C 9.921875 0.40625 11.953125 -1.3125 13.6875 -3.28125 L 13.3125 -3.640625 C 12 -2.078125 10.59375 -1.5625 9.484375 -1.5625 C 7.765625 -1.5625 6.640625 -2.59375 6.640625 -5.3125 L 6.640625 -19.4375 L 12.515625 -19.4375 L 12.71875 -20 L 6.640625 -20 L 6.640625 -24.921875 L 6.078125 -24.921875 L 0.953125 -20 L 0.953125 -19.4375 L 3.515625 -19.4375 L 3.515625 -5.3125 C 3.515625 -1.15625 5.046875 0.40625 7.5625 0.40625 Z M 7.5625 0.40625 "/></g></g></g><g fill="#000000" fill-opacity="1"><g transform="translate(885.792584, 234.472686)"><g/></g></g><g fill="#000000" fill-opacity="1"><g transform="translate(894.191722, 234.472686)"><g><path d="M 1.28125 0 L 7.59375 0 L 7.59375 -0.515625 C 6.359375 -0.875 6 -1.796875 6 -5.078125 L 6 -16.078125 C 8.15625 -17.71875 10.234375 -18.953125 12.515625 -18.953125 C 15.59375 -18.953125 17.078125 -16.875 17.078125 -12.921875 L 17.078125 -5.078125 C 17.078125 -1.796875 16.6875 -0.875 15.484375 -0.515625 L 15.484375 0 L 21.796875 0 L 21.796875 -0.515625 C 20.5625 -0.875 20.203125 -1.796875 20.203125 -5.078125 L 20.203125 -13.640625 C 20.203125 -14.515625 20.125 -15.3125 19.953125 -16 C 22.15625 -17.71875 24.234375 -18.953125 26.515625 -18.953125 C 29.640625 -18.953125 31.078125 -16.875 31.078125 -12.921875 L 31.078125 -5.078125 C 31.078125 -1.796875 30.71875 -0.875 29.484375 -0.515625 L 29.484375 0 L 35.796875 0 L 35.796875 -0.515625 C 34.59375 -0.875 34.203125 -1.796875 34.203125 -5.078125 L 34.203125 -13.640625 C 34.203125 -18.15625 32.203125 -20.28125 28.3125 -20.28125 C 25.3125 -20.28125 22.234375 -18.4375 19.84375 -16.515625 C 19.125 -19.078125 17.234375 -20.28125 14.28125 -20.28125 C 11.40625 -20.28125 8.40625 -18.5625 6 -16.640625 L 6 -20.046875 L 5.640625 -20.3125 L 1.28125 -18.40625 L 1.28125 -17.953125 C 2.359375 -17.484375 2.875 -17.078125 2.875 -14.28125 L 2.875 -5.078125 C 2.875 -1.796875 2.515625 -0.875 1.28125 -0.515625 Z M 1.28125 0 "/></g></g></g><g fill="#000000" fill-opacity="1"><g transform="translate(930.828103, 234.472686)"><g><path d="M 10.921875 0.40625 C 15.203125 0.40625 18.3125 -2.4375 20.359375 -5.234375 L 20 -5.59375 C 18.15625 -3.515625 15.953125 -2.125 12.875 -2.125 C 7.6875 -2.125 4.28125 -5.875 4.28125 -11.359375 C 4.28125 -12 4.3125 -12.59375 4.40625 -13.203125 L 20.046875 -13.203125 C 19.921875 -17 17 -20.28125 11.953125 -20.28125 C 6.359375 -20.28125 1.4375 -15.921875 1.4375 -9.40625 C 1.4375 -2.796875 6.515625 0.40625 10.921875 0.40625 Z M 4.515625 -13.71875 C 5.15625 -17.078125 7.234375 -19.59375 10.640625 -19.5625 C 14.28125 -19.5625 16.4375 -16.40625 16.84375 -13.71875 Z M 4.515625 -13.71875 "/></g></g></g><g fill="#000000" fill-opacity="1"><g transform="translate(952.30596, 234.472686)"><g><path d="M 2.203125 5.078125 L 2.359375 5.4375 C 4.71875 4.59375 7.078125 2 7.078125 -0.921875 C 7.125 -2.875 6.125 -4 4.5625 -4 C 3.28125 -4 2.40625 -3.046875 2.40625 -1.71875 C 2.40625 -0.640625 3.28125 0.234375 4.359375 0.234375 C 4.71875 0.234375 5 0.15625 5.3125 0.046875 C 5.203125 2.078125 4.28125 4.046875 2.203125 5.078125 Z M 2.203125 5.078125 "/></g></g></g><g fill="#000000" fill-opacity="1"><g transform="translate(961.785009, 234.472686)"><g/></g></g><g fill="#000000" fill-opacity="1"><g transform="translate(970.184148, 234.472686)"><g><path d="M 23.15625 0.3125 L 23.6875 0.3125 L 23.6875 -22.921875 C 23.6875 -26.203125 24.046875 -27.125 25.28125 -27.484375 L 25.28125 -28 L 20.234375 -28 L 20.234375 -27.484375 C 22.046875 -27 23 -25.875 23 -21.3125 L 23 -5.359375 L 5.515625 -28 L 1.59375 -28 L 1.59375 -27.484375 C 3.203125 -27.125 3.6875 -26.203125 3.6875 -22.921875 L 3.6875 -5.078125 C 3.6875 -1.796875 3.28125 -0.875 2.078125 -0.515625 L 2.078125 0 L 7.078125 0 L 7.078125 -0.515625 C 5.28125 -1 4.3125 -2.125 4.3125 -6.6875 L 4.3125 -24.203125 Z M 23.15625 0.3125 "/></g></g></g><g fill="#cf0b75" fill-opacity="1"><g transform="translate(997.065772, 234.472686)"><g><path d="M 10.921875 0.40625 C 15.203125 0.40625 18.3125 -2.4375 20.359375 -5.234375 L 20 -5.59375 C 18.15625 -3.515625 15.953125 -2.125 12.875 -2.125 C 7.6875 -2.125 4.28125 -5.875 4.28125 -11.359375 C 4.28125 -12 4.3125 -12.59375 4.40625 -13.203125 L 20.046875 -13.203125 C 19.921875 -17 17 -20.28125 11.953125 -20.28125 C 6.359375 -20.28125 1.4375 -15.921875 1.4375 -9.40625 C 1.4375 -2.796875 6.515625 0.40625 10.921875 0.40625 Z M 4.515625 -13.71875 C 5.15625 -17.078125 7.234375 -19.59375 10.640625 -19.5625 C 14.28125 -19.5625 16.4375 -16.40625 16.84375 -13.71875 Z M 4.515625 -13.71875 "/></g></g></g><g fill="#cf0b75" fill-opacity="1"><g transform="translate(1018.543641, 234.472686)"><g><path d="M 10.28125 0.4375 C 13.125 0.484375 15.59375 -1.4375 17.5625 -3.484375 L 17.5625 -1.203125 C 17.5625 -0.4375 18 0 18.765625 0 L 22.28125 0 L 22.28125 -0.515625 C 21.046875 -0.875 20.6875 -1.796875 20.6875 -5.078125 L 20.6875 -32.046875 L 20.359375 -32.3125 L 15.953125 -30.40625 L 15.953125 -29.953125 C 17.046875 -29.484375 17.5625 -29.078125 17.5625 -26.28125 L 17.5625 -18.6875 C 16.15625 -19.5625 14.3125 -20.234375 12.125 -20.234375 C 5.234375 -20.203125 1.4375 -15.078125 1.4375 -9.515625 C 1.4375 -3.875 5.3125 0.40625 10.28125 0.4375 Z M 4.4375 -11.921875 C 4.4375 -16.15625 6.640625 -19.484375 10.875 -19.484375 C 14.234375 -19.484375 17.203125 -16.59375 17.5625 -14 L 17.5625 -4.203125 C 16 -2.59375 14.15625 -1.515625 12.078125 -1.515625 C 6.640625 -1.515625 4.4375 -7.234375 4.4375 -11.921875 Z M 4.4375 -11.921875 "/></g></g></g><g fill="#cf0b75" fill-opacity="1"><g transform="translate(1041.741339, 234.472686)"><g><path d="M 1.515625 0 L 7.84375 0 L 7.84375 -0.515625 C 6.59375 -0.875 6.234375 -1.796875 6.234375 -5.078125 L 6.234375 -32.046875 L 5.875 -32.3125 L 1.515625 -30.40625 L 1.515625 -29.953125 C 2.59375 -29.484375 3.125 -29.078125 3.125 -26.28125 L 3.125 -5.078125 C 3.125 -1.796875 2.71875 -0.875 1.515625 -0.515625 Z M 1.515625 0 "/></g></g></g><g fill="#cf0b75" fill-opacity="1"><g transform="translate(1051.220399, 234.472686)"><g><path d="M 1.203125 7.71875 C 3.765625 7.6875 7.28125 6.84375 10.6875 -1 L 16.875 -15.3125 C 18.203125 -18.3125 19.234375 -19.125 20.359375 -19.484375 L 20.359375 -20 L 15.921875 -20 L 15.921875 -19.484375 C 17.3125 -19.203125 17.40625 -17.921875 16.28125 -15.3125 L 11.359375 -3.875 L 6.4375 -15.3125 C 5.15625 -18.3125 4.84375 -19.125 6.046875 -19.484375 L 6.046875 -20 L 0 -20 L 0 -19.484375 C 0.84375 -19.125 1.84375 -18.3125 3.078125 -15.3125 L 9.640625 0.078125 C 8.640625 2.15625 7.40625 4.125 6 5.3125 C 4.15625 5 2 4.40625 0.953125 4.40625 C -0.515625 4.40625 -1.515625 5.84375 -1.515625 6.59375 C -1.515625 7.234375 -0.359375 7.765625 1.203125 7.71875 Z M 1.203125 7.71875 "/></g></g></g><g fill="#cf0b75" fill-opacity="1"><g transform="translate(1071.378399, 234.472686)"><g><path d="M 1.28125 0 L 7.59375 0 L 7.59375 -0.515625 C 6.40625 -0.875 6 -1.796875 6 -5.078125 L 6 -15.953125 C 8.046875 -17.640625 10.203125 -18.953125 12.40625 -18.953125 C 15.921875 -18.953125 17.6875 -16.6875 17.6875 -12.515625 L 17.6875 -5.078125 C 17.6875 -1.796875 17.3125 -0.875 16.078125 -0.515625 L 16.078125 0 L 22.40625 0 L 22.40625 -0.515625 C 21.15625 -0.875 20.796875 -1.796875 20.796875 -5.078125 L 20.796875 -13.3125 C 20.796875 -18 18.40625 -20.28125 14.484375 -20.28125 C 11.40625 -20.28125 8.3125 -18.484375 6 -16.59375 L 6 -20.046875 L 5.6875 -20.3125 L 1.28125 -18.40625 L 1.28125 -17.953125 C 2.40625 -17.484375 2.875 -17.078125 2.875 -14.28125 L 2.875 -5.078125 C 2.875 -1.796875 2.515625 -0.875 1.28125 -0.515625 Z M 1.28125 0 "/></g></g></g><g fill="#cf0b75" fill-opacity="1"><g transform="translate(1094.736075, 234.472686)"><g><path d="M 16.765625 0 L 20.234375 0 L 20.234375 -0.515625 C 19 -0.875 18.640625 -1.796875 18.640625 -5.078125 L 18.640625 -13.078125 C 18.640625 -17.59375 16.40625 -20.28125 11.5625 -20.28125 C 8.078125 -20.28125 5.15625 -18.5625 2.875 -15.71875 L 3.234375 -15.40625 C 5.234375 -17.84375 7.5625 -18.953125 9.953125 -18.953125 C 13.359375 -18.953125 15.359375 -17.15625 15.5625 -13.28125 L 10.359375 -11.875 C 5.59375 -10.5625 1.40625 -9 1.40625 -4.84375 C 1.40625 -1.40625 4.046875 0.40625 7 0.40625 C 10.953125 0.40625 14.3125 -3.484375 15.5625 -8.40625 L 15.5625 -1.203125 C 15.5625 -0.4375 15.953125 0 16.765625 0 Z M 4.40625 -5.953125 C 4.359375 -9.234375 7.5625 -10.5625 10.515625 -11.40625 L 15.5625 -12.765625 L 15.5625 -11.5625 C 15.515625 -7.359375 12.765625 -1.953125 8.484375 -1.953125 C 6.203125 -1.953125 4.40625 -3.359375 4.40625 -5.953125 Z M 4.40625 -5.953125 "/></g></g></g></svg>